<?xml version="1.0" encoding="UTF-8"?>
<svg id="Layer_2" data-name="Layer 2" xmlns="http://www.w3.org/2000/svg" viewBox="0 0 947.49 425.87">
  <defs>
    <style>
      .cls-1, .cls-2, .cls-3 {
        fill: #fff;
      }

      .cls-4 {
        fill: #fcdb2c;
      }

      .cls-5 {
        fill: #7cf7f5;
      }

      .cls-2 {
        font-size: 306.6px;
      }

      .cls-2, .cls-3 {
        font-family: Autography, Autography;
      }

      .cls-3 {
        font-size: 306.6px;
      }

      .cls-6 {
        letter-spacing: 0em;
      }

      .cls-7 {
        letter-spacing: .02em;
      }
    </style>
  </defs>
  <g id="Layer_1-2" data-name="Layer 1">
    <text class="cls-3" transform="translate(0 283.91) scale(.9 1)"><tspan x="0" y="0">Dev</tspan></text>
    <g>
      <text class="cls-2" transform="translate(658.79 261.22) scale(.9 1)"><tspan class="cls-7" x="0" y="0">n</tspan><tspan class="cls-6" x="140.42" y="0">e</tspan><tspan x="226.26" y="0">x</tspan></text>
      <path class="cls-1" d="m665.65,235.36c-1.15-.15-3.69,10.67-4.04,11.9-1.61,5.66-4.6,11.26-9.38,14.96-5.88,4.55-13.3,4.84-20.45,4.22-2.29-.2-4.58-.48-6.86-.73-8.76-.96-17.48-2.17-26.17-3.64-3.83-.64-7.56-1.08-11.39-1.56-2.79-.26-5.36.12-7.33-2.15-1.05-1.21-4.17-8.79-.08-7.97,3.38.68,6.9.78,10.32,1.26,4.42.61,8.83,1.22,13.25,1.84,9.62,1.33,19.35,3.19,29.03,3.77,3.43.21,7.16.7,10.18-1.32,4.46-2.97,5.99-9.09,6.96-14,.46-2.36.79-4.75,1.09-7.14.06-.48.19-1.05.64-1.22.21-.08.45-.05.68-.02,4.51.6,9.01,1.2,13.56,1.8Z"/>
    </g>
    <g id="x">
      <path class="cls-4" d="m574.09,229.47c-2.3-3.09-4.32-7.05-6.97-9.54-2.1-1.98,6.11-10.91,7.22-12.43,3.27-4.46,6.53-8.92,9.79-13.38,1.1-1.51,15.02-21.14,15.02-21.46.73.2,1.03-.62,1.44-1.18,10.14-13.97,20.42-27.66,30.65-41.49,1.44-1.95,2.87-3.9,4.28-5.86.75-1.04,3.8-4.13,3.86-5.57,2.84-6.4,7.25-15.14,9.05-22.36,1.09-4.36,1.17-4.72-2.14-5.8-8.17-2.66-21.54-.76-29.68,2.41.09.07.19.14.31.2-5.19.84-9.44,3.95-13.45,8.79-10.16,12.25-19.52,25.69-29.26,38.59.19.27.37.55.55.82-.17-.17-.35-.34-.53-.49-1.11-.97-18.45,25.45-20.17,27.72-1.6,2.11-2.39,4.46-2.37,7.82.15,22.54.67,45.13-.13,67.62-.22,6.14.16,12.93,2.37,18.4,2.1,5.19,5.48,8.72,8.51,12.77,3.17,4.22,6.21,8.7,9.84,12.17-.18.24,40.31,52.96,44.28,57.57,1.38,1.61,2.79,2.63,4.25,3.07.29.06.58.14.87.2.02,0,.05,0,.07.02.72.12,1.45.24,2.17.36,7.33,1.23,14.66,2.45,21.99,3.68.03,0,.06,0,.08.03,0,0,.01.02.02.03-.05,0-.09,0-.14,0-.06.08,0,.23.08.22.06-.02.09-.13.07-.2,3.94.43,7.89.69,11.84.97,2.2.15-.21-4.9-.73-5.9-1.01-1.95-2.02-3.89-3.03-5.82-2.01-3.82-4.08-7.66-6.16-11.34m-63.87-176.47c.12.15.25.31.38.45-.12-.15-.26-.29-.38-.45-.02-.02-.03-.05-.06-.07.02.02.03.04.06.06Z"/>
      <path class="cls-5" d="m542.83,233.29c-1.86,3.73-4.39,7.14-6.95,10.28-17.25,21.19-34.54,42.34-52,63.21-5.18,6.2-10.37,12.4-15.55,18.59-9.78,11.68-19.82,23.02-29.05,35.32-1.21,1.61-1.92,1.31-2.99.12-6.22-6.92-10.91-15.19-11.96-25.81-.83-8.5.48-16.73,4.41-23.98,4.52-8.34,10.67-14.69,16.35-21.61,12.93-15.75,25.59-31.81,38.63-47.44,6.26-7.5,12.65-14.82,19.11-22.06,2.85-3.2,5.54-6.6,8.3-9.91,1.42-1.71,6.52-5.72,7.05-7.89-.1.4.19-.13.04-.04-.02.02-.02.03-.04.04-6.81,0-13.61-.11-20.42-.08-5.77.03-12.69,1.82-17.99-1.49-4.01-2.51-6.66-6.97-9.61-10.92-3.41-4.58-7.42-8.43-10.9-12.97-9.67-12.63-19.92-24.5-29.67-37.05-6.79-8.75-7.06-18.11-3.87-28.71,2.29-7.62,5.9-14.08,10.17-20.04,1.2-1.66,1.95-2.25,3.55-.36,15.13,17.75,30.49,35.12,45.29,53.24,8.46,10.35,17.04,20.56,25.74,30.62,6.75,7.81,13.92,15.34,20.86,22.81,5.27,5.68,12.09,11.23,13.9,19.97,1.25,6.01-.02,11.35-2.42,16.16Z"/>
    </g>
  </g>
</svg>