<?xml version="1.0" encoding="utf-8"?>
<!-- Generator: Adobe Illustrator 27.5.0, SVG Export Plug-In . SVG Version: 6.00 Build 0)  -->
<svg version="1.1" id="Layer_1" xmlns="http://www.w3.org/2000/svg" xmlns:xlink="http://www.w3.org/1999/xlink" x="0px" y="0px"
	 viewBox="0 0 36 28" style="enable-background:new 0 0 36 28;" xml:space="preserve">
<style type="text/css">
	.st0{fill:#FFFFFF;}
	.st1{font-family:'Autography';}
	.st2{font-size:13.5426px;}
	.st3{fill:#FCDB2C;}
	.st4{fill:#7CF7F5;}
</style>
<g>
	<text transform="matrix(0.7879 0 0 1 0.1494 17.1396)" class="st0 st1 st2">Dev</text>
	<g>
		<text transform="matrix(0.7879 0 0 1 25.6406 16.1367)" class="st0 st1 st2">nex</text>
		<path class="st0" d="M25.9,15c0,0-0.1,0.5-0.2,0.5c-0.1,0.3-0.2,0.5-0.4,0.7c-0.2,0.2-0.5,0.2-0.8,0.2c-0.1,0-0.2,0-0.3,0
			c-0.3,0-0.7-0.1-1-0.2c-0.1,0-0.3,0-0.4-0.1c-0.1,0-0.2,0-0.3-0.1c0-0.1-0.2-0.4,0-0.4c0.1,0,0.3,0,0.4,0.1c0.2,0,0.3,0.1,0.5,0.1
			c0.4,0.1,0.7,0.1,1.1,0.2c0.1,0,0.3,0,0.4-0.1c0.2-0.1,0.2-0.4,0.3-0.6c0-0.1,0-0.2,0-0.3c0,0,0,0,0-0.1c0,0,0,0,0,0
			C25.6,14.9,25.7,15,25.9,15z"/>
	</g>
	<g id="x_00000106849915454593439520000008857558000595894944_">
		<path class="st3" d="M22.4,14.7c-0.1-0.1-0.2-0.3-0.3-0.4c-0.1-0.1,0.2-0.5,0.3-0.5c0.1-0.2,0.3-0.4,0.4-0.6
			c0-0.1,0.6-0.9,0.6-0.9c0,0,0,0,0.1-0.1c0.4-0.6,0.8-1.2,1.2-1.8c0.1-0.1,0.1-0.2,0.2-0.3c0,0,0.1-0.2,0.1-0.2
			c0.1-0.3,0.3-0.7,0.4-1c0-0.2,0-0.2-0.1-0.3c-0.3-0.1-0.8,0-1.1,0.1c0,0,0,0,0,0c-0.2,0-0.4,0.2-0.5,0.4c-0.4,0.5-0.8,1.1-1.1,1.7
			c0,0,0,0,0,0c0,0,0,0,0,0c0,0-0.7,1.1-0.8,1.2c-0.1,0.1-0.1,0.2-0.1,0.3c0,1,0,2,0,3c0,0.3,0,0.6,0.1,0.8c0.1,0.2,0.2,0.4,0.3,0.6
			c0.1,0.2,0.2,0.4,0.4,0.5c0,0,1.6,2.3,1.7,2.5c0.1,0.1,0.1,0.1,0.2,0.1c0,0,0,0,0,0c0,0,0,0,0,0c0,0,0.1,0,0.1,0
			c0.3,0.1,0.6,0.1,0.9,0.2c0,0,0,0,0,0c0,0,0,0,0,0c0,0,0,0,0,0c0,0,0,0,0,0c0,0,0,0,0,0c0.2,0,0.3,0,0.5,0c0.1,0,0-0.2,0-0.3
			c0-0.1-0.1-0.2-0.1-0.3c-0.1-0.2-0.2-0.3-0.2-0.5 M22.7,11.4C22.8,11.4,22.8,11.4,22.7,11.4C22.8,11.4,22.8,11.4,22.7,11.4
			C22.7,11.4,22.7,11.4,22.7,11.4C22.7,11.4,22.7,11.4,22.7,11.4z"/>
		<path class="st4" d="M21.2,14.9c-0.1,0.2-0.2,0.3-0.3,0.5c-0.7,0.9-1.3,1.9-2,2.8c-0.2,0.3-0.4,0.5-0.6,0.8
			c-0.4,0.5-0.8,1-1.1,1.6c0,0.1-0.1,0.1-0.1,0c-0.2-0.3-0.4-0.7-0.5-1.1c0-0.4,0-0.7,0.2-1.1c0.2-0.4,0.4-0.6,0.6-1
			c0.5-0.7,1-1.4,1.5-2.1c0.2-0.3,0.5-0.7,0.7-1c0.1-0.1,0.2-0.3,0.3-0.4c0.1-0.1,0.3-0.3,0.3-0.3c0,0,0,0,0,0c0,0,0,0,0,0
			c-0.3,0-0.5,0-0.8,0c-0.2,0-0.5,0.1-0.7-0.1c-0.2-0.1-0.3-0.3-0.4-0.5c-0.1-0.2-0.3-0.4-0.4-0.6c-0.4-0.6-0.8-1.1-1.1-1.6
			c-0.3-0.4-0.3-0.8-0.1-1.3c0.1-0.3,0.2-0.6,0.4-0.9c0-0.1,0.1-0.1,0.1,0c0.6,0.8,1.2,1.6,1.8,2.4c0.3,0.5,0.7,0.9,1,1.4
			c0.3,0.3,0.5,0.7,0.8,1c0.2,0.3,0.5,0.5,0.5,0.9C21.3,14.5,21.2,14.7,21.2,14.9z"/>
	</g>
</g>
</svg>
